# xmcd CD database file
#
# Track frame offsets:
#	150
#	13363
#	25869
#	37554
#	52499
#	66577
#	80202
#	95692
#	108341
#	121997
#	136724
#	148481
#	161473
#	174857
#	189334
#	200997
#	215378
#	230783
#	245531
#	264802
#	278684
#	292633
#
# Disc length: 4064 seconds
#
# Revision: 0
# Processed by: cddbd v1.4PL0 Copyright (c) Steve Scherf et al.
# Submitted via: CDex 1.50beta10
#
DISCID=460fde16
DTITLE=Various Artist - About Jazz
DYEAR=2002
DGENRE=Jazz
TTITLE0=les brown - Green Eyes
TTITLE1=frank sinatra - All Of Me
TTITLE2=jimmy dorsey - Blueberry Hill
TTITLE3=count basie - St. Louis Blues
TTITLE4=count basie - Royal Garden Blues
TTITLE5=oscar peterson - Gypsy In My Soul
TTITLE6=teddy wilson - 's Wonderful
TTITLE7=george shearing - How High The Moon
TTITLE8=billie holiday - On The Sunny Side Of The Street
TTITLE9=george shearing - September In The Rain
TTITLE10=benny goodman - When You're Smiling
TTITLE11=ella fitzgerald - A Guy Is A Guy
TTITLE12=peggy lee - Them There Eyes
TTITLE13=nat king cole - I'm In The Mood For Love
TTITLE14=erroll garner - I've Got You Under My Skin
TTITLE15=thelonious monk - Round Midnight
TTITLE16=glenn miller - Moonlight Serenade
TTITLE17=buddy rich - Route 66
TTITLE18=bud powell - A Night In Tunisia
TTITLE19=charlie parker - Steeplechase
TTITLE20=louis armstrong - Kiss of Fire
TTITLE21=sonny rollins - On A Slow Boat To China
EXTD=YEAR: 2002
EXTT0=
EXTT1=
EXTT2=
EXTT3=
EXTT4=
EXTT5=
EXTT6=
EXTT7=
EXTT8=
EXTT9=
EXTT10=
EXTT11=
EXTT12=
EXTT13=
EXTT14=
EXTT15=
EXTT16=
EXTT17=
EXTT18=
EXTT19=
EXTT20=
EXTT21=
PLAYORDER=
